<svg width="178" height="27" viewBox="0 0 178 27" fill="none" xmlns="http://www.w3.org/2000/svg">
<path d="M31.556 9.626C31.556 11.374 31.05 13.1373 30.038 14.916C29.0567 16.6947 27.692 18.3047 25.944 19.746C24.2267 21.1873 22.0493 22.3527 19.412 23.242C16.8053 24.162 14.0147 24.622 11.04 24.622C8.096 24.622 6.624 24.3767 6.624 23.886C6.624 23.61 6.854 23.472 7.314 23.472H8.05C8.26467 23.5027 8.54067 23.518 8.878 23.518C11.914 23.518 14.7967 23.0427 17.526 22.092C20.2553 21.1413 22.494 19.9453 24.242 18.504C26.0207 17.032 27.416 15.468 28.428 13.812C29.4707 12.1253 29.992 10.5307 29.992 9.028C29.992 6.66667 29.0567 4.796 27.186 3.416C25.3153 2.00533 22.908 1.3 19.964 1.3H19.642C15.4407 1.392 9.53733 2.83333 1.932 5.624C1.288 5.624 0.966 5.14867 0.966 4.198C0.966 3.89133 1.104 3.67667 1.38 3.554C1.656 3.40067 2.54533 3.10933 4.048 2.68C9.53733 1.024 14.5667 0.195998 19.136 0.195998C22.7547 0.195998 25.7293 1.05467 28.06 2.772C30.3907 4.48933 31.556 6.774 31.556 9.626ZM5.704 26.692L5.612 26.738C5.12133 26.738 4.72267 26.4467 4.416 25.864C4.10933 25.312 3.956 24.4993 3.956 23.426C3.956 19.6233 6.10267 13.95 10.396 6.406C10.396 6.28333 10.5493 5.96133 10.856 5.44C11.1933 4.888 11.4693 4.428 11.684 4.06C12.1133 3.29333 12.4813 2.91 12.788 2.91C13.1253 2.91 13.5087 3.002 13.938 3.186C14.3673 3.33933 14.582 3.508 14.582 3.692C13.7847 5.072 12.9567 6.42133 12.098 7.74C7.406 15.8667 5.06 21.4173 5.06 24.392C5.06 24.7293 5.16733 25.174 5.382 25.726C5.59667 26.278 5.704 26.6 5.704 26.692ZM61.7015 12.892C60.4748 16.2653 59.8615 18.688 59.8615 20.16C59.8615 21.6013 60.1221 22.322 60.6435 22.322C60.7355 22.0767 60.8428 21.7393 60.9655 21.31C61.0575 21.5247 61.1035 21.8467 61.1035 22.276C61.1035 23.0733 60.8581 23.472 60.3675 23.472C58.7728 23.472 57.9755 22.092 57.9755 19.332C57.9755 18.0133 58.1901 16.296 58.6195 14.18C57.9141 14.8853 57.2088 15.7593 56.5035 16.802L54.1115 20.16C52.7928 22.0307 51.9801 22.966 51.6735 22.966C50.6308 22.966 50.1095 22.782 50.1095 22.414C50.1095 22.322 50.2781 21.6013 50.6155 20.252C51.6888 16.2653 52.2255 13.5513 52.2255 12.11C52.2255 11.466 52.0261 11.144 51.6275 11.144C50.4928 11.144 48.9595 12.8153 47.0275 16.158C46.3528 17.3847 45.6015 18.918 44.7735 20.758C43.9761 22.5673 43.5468 23.472 43.4855 23.472C43.1788 23.472 42.8568 23.3953 42.5195 23.242C42.1821 23.0887 42.0135 22.9047 42.0135 22.69C42.0135 22.1687 42.5195 20.3287 43.5315 17.17C44.5435 13.9807 45.0495 11.5887 45.0495 9.994C45.0495 9.47267 44.8348 9.19667 44.4055 9.166C43.9761 9.10467 43.7615 9.01267 43.7615 8.89C43.7615 8.614 43.9915 8.476 44.4515 8.476C46.5061 8.476 47.5335 9.31933 47.5335 11.006C47.5335 11.8647 47.1808 13.2907 46.4755 15.284L47.5335 13.49C48.3921 12.0793 49.1741 11.052 49.8795 10.408C50.6155 9.764 51.3821 9.442 52.1795 9.442C52.2101 9.442 52.2408 9.442 52.2715 9.442C53.6821 9.442 54.3875 10.3927 54.3875 12.294C54.3875 13.8273 53.8201 16.2807 52.6855 19.654L58.9875 12.846C59.3861 12.6007 59.9381 12.478 60.6435 12.478C61.3488 12.478 61.7015 12.616 61.7015 12.892ZM80.1115 2.91C80.1729 2.91 80.2035 2.98667 80.2035 3.14L79.9735 4.474C79.5135 6.37533 78.8082 7.326 77.8575 7.326C77.1522 7.326 76.6002 7.142 76.2015 6.774C77.3669 5.97667 78.6702 4.68867 80.1115 2.91ZM77.7195 10.454C76.7689 12.0793 75.8642 14.1493 75.0055 16.664C74.1469 19.148 73.7175 20.8653 73.7175 21.816C73.7175 22.7667 73.9169 23.242 74.3155 23.242C74.5915 23.242 74.9442 23.0733 75.3735 22.736C75.8029 22.3987 76.0635 22.184 76.1555 22.092C76.2475 22 76.3549 21.908 76.4775 21.816C76.6002 21.816 76.6615 21.8773 76.6615 22C76.6615 22.368 76.2169 22.7973 75.3275 23.288C74.4689 23.8093 73.8402 24.07 73.4415 24.07C72.2762 24.07 71.6935 23.2267 71.6935 21.54C71.6935 19.0253 72.6135 15.6673 74.4535 11.466C74.4535 11.3433 74.5302 11.1133 74.6835 10.776C74.8675 10.4387 75.0055 10.224 75.0975 10.132C75.3122 9.91733 75.6035 9.81 75.9715 9.81C77.0449 9.81 77.6275 10.0247 77.7195 10.454ZM92.8672 4.75L91.9472 4.98C91.8552 4.98 91.8092 4.934 91.8092 4.842C91.8092 4.59667 91.9932 4.41267 92.3612 4.29C92.7292 4.13667 93.0052 4.06 93.1892 4.06C94.5385 4.06 95.2132 4.82667 95.2132 6.36C95.2132 7.28 94.9372 8.44533 94.3852 9.856C94.5078 9.97867 95.0598 10.04 96.0412 10.04C97.0225 10.04 97.7892 9.93267 98.3412 9.718C98.8932 9.47267 99.2152 9.35 99.3072 9.35C99.4298 9.35 99.4912 9.396 99.4912 9.488C99.4912 9.58 99.4298 9.68733 99.3072 9.81C97.8658 11.0367 96.1025 11.788 94.0172 12.064C93.8332 12.064 93.6185 12.11 93.3732 12.202C90.5825 17.7833 89.1872 21.31 89.1872 22.782C89.1872 23.2727 89.3712 23.518 89.7392 23.518L91.0272 23.242L91.0732 23.288C91.0732 23.932 90.5672 24.254 89.5552 24.254C88.2058 24.254 87.5312 23.5333 87.5312 22.092C87.5312 20.8653 87.9605 19.1633 88.8192 16.986C89.3098 15.882 90.0305 14.1953 90.9812 11.926C89.9385 11.4967 89.4172 10.8987 89.4172 10.132C89.4172 9.88667 89.4785 9.718 89.6012 9.626C90.0918 9.84067 90.7972 9.994 91.7172 10.086C92.7292 7.84733 93.2352 6.406 93.2352 5.762C93.2352 5.08733 93.1125 4.75 92.8672 4.75ZM118.482 9.488C118.482 9.36533 118.314 9.534 117.976 9.994C116.811 11.6193 116.182 12.8153 116.09 13.582C116.09 14.41 116.382 14.916 116.964 15.1C117.179 15.1613 117.286 15.2073 117.286 15.238C117.286 15.4833 116.98 15.606 116.366 15.606C115.784 15.606 115.278 15.376 114.848 14.916C114.419 14.4253 114.204 13.8887 114.204 13.306C114.204 12.6927 114.281 12.1713 114.434 11.742C112.932 12.938 111.674 14.1647 110.662 15.422C109.681 16.6793 109.006 17.768 108.638 18.688C108.27 19.608 107.994 20.4513 107.81 21.218C107.626 21.954 107.473 22.506 107.35 22.874C107.228 23.2727 107.028 23.472 106.752 23.472C106.476 23.472 106.17 23.3953 105.832 23.242C105.495 23.0887 105.326 22.9047 105.326 22.69C105.326 22.1687 105.832 20.3287 106.844 17.17C107.856 13.9807 108.362 11.5887 108.362 9.994C108.362 9.47267 108.148 9.19667 107.718 9.166C107.289 9.10467 107.074 9.01267 107.074 8.89C107.074 8.614 107.304 8.476 107.764 8.476C109.819 8.476 110.846 9.31933 110.846 11.006C110.846 11.4967 110.34 13.306 109.328 16.434C110.984 13.7353 112.824 11.88 114.848 10.868C115.339 9.764 116.06 9.212 117.01 9.212C117.992 9.212 118.482 9.304 118.482 9.488ZM134.71 2.91C134.771 2.91 134.802 2.98667 134.802 3.14L134.572 4.474C134.112 6.37533 133.406 7.326 132.456 7.326C131.75 7.326 131.198 7.142 130.8 6.774C131.965 5.97667 133.268 4.68867 134.71 2.91ZM132.318 10.454C131.367 12.0793 130.462 14.1493 129.604 16.664C128.745 19.148 128.316 20.8653 128.316 21.816C128.316 22.7667 128.515 23.242 128.914 23.242C129.19 23.242 129.542 23.0733 129.972 22.736C130.401 22.3987 130.662 22.184 130.754 22.092C130.846 22 130.953 21.908 131.076 21.816C131.198 21.816 131.26 21.8773 131.26 22C131.26 22.368 130.815 22.7973 129.926 23.288C129.067 23.8093 128.438 24.07 128.04 24.07C126.874 24.07 126.292 23.2267 126.292 21.54C126.292 19.0253 127.212 15.6673 129.052 11.466C129.052 11.3433 129.128 11.1133 129.282 10.776C129.466 10.4387 129.604 10.224 129.696 10.132C129.91 9.91733 130.202 9.81 130.57 9.81C131.643 9.81 132.226 10.0247 132.318 10.454ZM153.399 16.25C153.583 16.25 153.675 16.3267 153.675 16.48C153.675 16.6027 153.645 16.7253 153.583 16.848C150.363 21.54 147.695 23.886 145.579 23.886C142.973 23.886 141.669 22.6747 141.669 20.252C141.669 18.3813 142.589 16.112 144.429 13.444C146.3 10.776 148.109 9.442 149.857 9.442C150.593 9.442 151.237 9.68733 151.789 10.178C152.372 10.638 152.663 11.2053 152.663 11.88C152.663 13.0453 151.943 14.1953 150.501 15.33C149.06 16.4647 147.665 17.032 146.315 17.032C146.039 17.032 145.901 16.9707 145.901 16.848L146.039 16.618C149.566 15.514 151.329 13.7047 151.329 11.19C151.329 10.822 151.207 10.638 150.961 10.638C150.593 10.638 149.98 10.9907 149.121 11.696C147.619 12.9227 146.315 14.456 145.211 16.296C144.107 18.136 143.555 19.6847 143.555 20.942C143.555 22.1993 144.031 22.828 144.981 22.828C146.055 22.828 147.266 22.2607 148.615 21.126C149.474 20.3287 150.471 19.3167 151.605 18.09C152.771 16.8633 153.369 16.25 153.399 16.25ZM177.384 8.292C177.384 8.44533 177.338 8.568 177.246 8.66C175.467 9.73333 173.489 11.4353 171.312 13.766C169.165 16.066 167.54 18.7187 166.436 21.724C166.068 23.196 165.684 23.932 165.286 23.932C164.366 23.932 163.906 23.7173 163.906 23.288C164.366 18.3507 164.596 15.4373 164.596 14.548C164.596 12.0027 164.212 10.7147 163.446 10.684C163.384 10.7147 163.277 10.8527 163.124 11.098C163.001 11.3433 162.894 11.466 162.802 11.466C162.526 11.466 162.388 11.2513 162.388 10.822C162.388 10.2087 162.894 9.902 163.906 9.902C165.838 9.902 166.804 11.604 166.804 15.008C166.804 15.3147 166.696 16.3113 166.482 17.998C166.482 18.1207 166.543 18.182 166.666 18.182C166.727 18.182 166.834 18.0593 166.988 17.814C169.165 14.778 171.128 12.3553 172.876 10.546C174.654 8.706 175.973 7.786 176.832 7.786C177.2 7.786 177.384 7.95467 177.384 8.292Z" fill="#BC760C"/>
</svg>
